<svg width="1248" height="137" viewBox="0 0 1248 137" fill="none" xmlns="http://www.w3.org/2000/svg">
<path fill-rule="evenodd" clip-rule="evenodd" d="M1147 0C1149.5 0 1152.5 0.500178 1155.18 4.00391L1246.31 130.379C1248.22 133.025 1246.33 136.719 1243.06 136.719H1222.18C1219.35 136.719 1216.68 135.385 1214.98 133.119L1204.23 118.788C1203.47 117.781 1202.29 117.188 1201.03 117.188H1085.03C1083.7 117.188 1082.46 117.844 1081.72 118.939L1072.12 133.06C1070.44 135.525 1067.66 137 1064.68 137H926.156C924.094 137 922.095 136.292 920.492 134.995L853.082 80.4116C851.479 79.1141 849.48 78.4062 847.418 78.4062H828.828C815.807 78.4062 809.297 84.9167 809.297 97.9375V133C809.297 135.209 807.506 137 805.297 137H789C784.029 137 780 132.971 780 128V97.9375C780 71.8958 796.276 58.875 828.828 58.875H916.719C929.74 58.875 936.25 52.3646 936.25 39.3438C936.25 26.3229 929.74 19.8125 916.719 19.8125H744.174C742.675 19.8125 741.694 21.4101 742.247 22.8037C744.133 27.5628 745.078 33.0756 745.078 39.3438V97.9375C745.078 123.979 728.802 137 696.25 137H588.828C588.213 137 587.604 136.993 587 136.983V137H485C480.029 137 476 132.971 476 128V23.8125C476 21.6034 474.209 19.8125 472 19.8125H411.656C409.447 19.8125 407.656 21.6034 407.656 23.8125V128C407.656 132.971 403.627 137 398.656 137L174.18 136.999C171.347 136.999 168.68 135.665 166.98 133.399L156.231 119.068C155.476 118.061 154.29 117.468 153.031 117.468H37.0139C35.6991 117.468 34.4683 118.114 33.7216 119.196L24.1207 133.11C22.4406 135.545 19.6713 136.999 16.713 136.999H3.73301C1.31159 136.999 -0.112159 134.278 1.26822 132.289L22.825 101.221C24.5164 98.7832 27.3006 97.3357 30.2676 97.3516L131.672 97.8955C134.899 97.9128 136.843 94.3366 135.018 91.6746C123.569 74.9693 92.636 29.8699 84.8741 18.8847C83.8565 17.4446 83.7966 15.4852 84.7498 14.0018L87 10.5C87.3765 9.95434 87.7361 9.42757 88.0823 8.92038C91.867 3.37613 94.0557 0.169922 99.305 0.169922C102.805 0.169922 105 1.50001 107.18 4.28418L186.489 114.264C188.181 116.61 190.897 118 193.789 118H218.037C220.246 118 222.036 116.259 222.035 114.05C222.028 96.0347 222.002 22.1442 221.995 4.21443C221.995 2.00473 223.786 0.28125 225.995 0.28125H241.291C246.814 0.281258 251.291 4.75841 251.291 10.2812V97.9375C251.291 110.958 257.801 117.469 270.822 117.469H374.359C376.568 117.469 378.359 115.678 378.359 113.469V23.8125C378.359 21.6034 376.568 19.8125 374.359 19.8125H320C314.477 19.8125 310 15.3353 310 9.8125V4.28125C310 2.07211 311.791 0.28125 314 0.28125H496.297C501.268 0.28125 505.297 4.31069 505.297 9.28125V113.5C505.297 115.709 507.088 117.5 509.297 117.5H540.916C542.416 117.5 543.396 115.9 542.842 114.506C540.948 109.741 540 104.218 540 97.9375V39.3438C540 13.3021 556.276 0.28125 588.828 0.28125H916.719C949.271 0.28125 965.547 13.3021 965.547 39.3438C965.547 65.3854 949.271 78.4062 916.719 78.4062H900.575C898.703 78.4062 897.857 80.7479 899.297 81.9444L938.979 114.922C940.595 116.265 942.63 117 944.732 117H996C998.209 117 1000 115.209 1000 113V7.28125C1000 3.41526 1003.13 0.28125 1007 0.28125H1022.3C1026.17 0.28125 1029.3 3.41526 1029.3 7.28125V113C1029.3 115.209 1031.09 117 1033.3 117H1054.97C1057.92 117 1060.68 115.554 1062.36 113.131L1134.09 9.76562C1138.58 3.25521 1141.27 0 1147 0ZM569.297 39.3438C569.297 26.3229 575.807 19.8125 588.828 19.8125H696.25C709.271 19.8125 715.781 26.3229 715.781 39.3438V97.9375C715.781 110.958 709.271 117.469 696.25 117.469H588.828C575.807 117.469 569.297 110.958 569.297 97.9375V39.3438ZM1138 36C1139.5 34 1141.5 34 1143 36L1183.9 92.9054C1185.32 94.8901 1183.9 97.6562 1181.46 97.6562H1100.41C1097.98 97.6562 1096.56 94.9179 1097.95 92.9302L1138 36Z" fill="white"/>
</svg>
